<?xml version="1.0" encoding="UTF-8" standalone="no"?>
<!DOCTYPE svg PUBLIC "-//W3C//DTD SVG 1.1//EN"
 "http://www.w3.org/Graphics/SVG/1.1/DTD/svg11.dtd">
<!-- Generated by graphviz version 2.47.3 (20210619.1520)
 -->
<!-- Title: ParseTree Pages: 1 -->
<svg width="649pt" height="421pt"
 viewBox="0.00 0.00 648.69 420.70" xmlns="http://www.w3.org/2000/svg" xmlns:xlink="http://www.w3.org/1999/xlink">
<g id="graph0" class="graph" transform="scale(1 1) rotate(0) translate(4 416.7)">
<title>ParseTree</title>
<polygon fill="white" stroke="transparent" points="-4,4 -4,-416.7 644.69,-416.7 644.69,4 -4,4"/>
<!-- n1 -->
<g id="node1" class="node">
<title>n1</title>
<ellipse fill="none" stroke="black" cx="392.35" cy="-385.83" rx="59.29" ry="26.74"/>
<text text-anchor="middle" x="392.35" y="-389.63" font-family="Times,serif" font-size="14.00">type=array</text>
<text text-anchor="middle" x="392.35" y="-374.63" font-family="Times,serif" font-size="14.00">slice=[0,50]</text>
</g>
<!-- n2 -->
<g id="node2" class="node">
<title>n2</title>
<ellipse fill="none" stroke="black" cx="213.35" cy="-296.09" rx="59.29" ry="26.74"/>
<text text-anchor="middle" x="213.35" y="-299.89" font-family="Times,serif" font-size="14.00">type=object</text>
<text text-anchor="middle" x="213.35" y="-284.89" font-family="Times,serif" font-size="14.00">slice=[1,25]</text>
</g>
<!-- n1&#45;&gt;n2 -->
<g id="edge1" class="edge">
<title>n1&#45;&gt;n2</title>
<path fill="none" stroke="black" d="M353.06,-365.58C326.13,-352.38 290.24,-334.78 261.57,-320.73"/>
<polygon fill="black" stroke="black" points="263.06,-317.56 252.54,-316.3 259.98,-323.84 263.06,-317.56"/>
</g>
<!-- n9 -->
<g id="node9" class="node">
<title>n9</title>
<ellipse fill="none" stroke="black" cx="392.35" cy="-296.09" rx="64.19" ry="26.74"/>
<text text-anchor="middle" x="392.35" y="-299.89" font-family="Times,serif" font-size="14.00">type=array</text>
<text text-anchor="middle" x="392.35" y="-284.89" font-family="Times,serif" font-size="14.00">slice=[26,43]</text>
</g>
<!-- n1&#45;&gt;n9 -->
<g id="edge2" class="edge">
<title>n1&#45;&gt;n9</title>
<path fill="none" stroke="black" d="M392.35,-358.51C392.35,-350.54 392.35,-341.65 392.35,-333.16"/>
<polygon fill="black" stroke="black" points="395.85,-333.09 392.35,-323.09 388.85,-333.09 395.85,-333.09"/>
</g>
<!-- n13 -->
<g id="node13" class="node">
<title>n13</title>
<ellipse fill="none" stroke="black" cx="539.35" cy="-296.09" rx="64.19" ry="26.74"/>
<text text-anchor="middle" x="539.35" y="-299.89" font-family="Times,serif" font-size="14.00">type=string</text>
<text text-anchor="middle" x="539.35" y="-284.89" font-family="Times,serif" font-size="14.00">slice=[44,49]</text>
</g>
<!-- n1&#45;&gt;n13 -->
<g id="edge3" class="edge">
<title>n1&#45;&gt;n13</title>
<path fill="none" stroke="black" d="M427.18,-364.04C447.41,-351.97 473.09,-336.64 494.77,-323.7"/>
<polygon fill="black" stroke="black" points="496.69,-326.63 503.48,-318.5 493.1,-320.62 496.69,-326.63"/>
</g>
<!-- n3 -->
<g id="node3" class="node">
<title>n3</title>
<ellipse fill="none" stroke="black" cx="140.35" cy="-206.35" rx="59.29" ry="26.74"/>
<text text-anchor="middle" x="140.35" y="-210.15" font-family="Times,serif" font-size="14.00">type=item</text>
<text text-anchor="middle" x="140.35" y="-195.15" font-family="Times,serif" font-size="14.00">slice=[2,24]</text>
</g>
<!-- n2&#45;&gt;n3 -->
<g id="edge4" class="edge">
<title>n2&#45;&gt;n3</title>
<path fill="none" stroke="black" d="M193.01,-270.65C185.02,-261.05 175.74,-249.89 167.21,-239.64"/>
<polygon fill="black" stroke="black" points="169.66,-237.11 160.57,-231.66 164.28,-241.59 169.66,-237.11"/>
</g>
<!-- n4 -->
<g id="node4" class="node">
<title>n4</title>
<ellipse fill="none" stroke="black" cx="70.35" cy="-116.61" rx="58.88" ry="26.74"/>
<text text-anchor="middle" x="70.35" y="-120.41" font-family="Times,serif" font-size="14.00">type=string</text>
<text text-anchor="middle" x="70.35" y="-105.41" font-family="Times,serif" font-size="14.00">slice=[2,11]</text>
</g>
<!-- n3&#45;&gt;n4 -->
<g id="edge5" class="edge">
<title>n3&#45;&gt;n4</title>
<path fill="none" stroke="black" d="M120.85,-180.91C113.25,-171.39 104.43,-160.33 96.31,-150.15"/>
<polygon fill="black" stroke="black" points="98.96,-147.86 89.98,-142.22 93.48,-152.22 98.96,-147.86"/>
</g>
<!-- n5 -->
<g id="node5" class="node">
<title>n5</title>
<ellipse fill="none" stroke="black" cx="211.35" cy="-116.61" rx="64.19" ry="26.74"/>
<text text-anchor="middle" x="211.35" y="-120.41" font-family="Times,serif" font-size="14.00">type=array</text>
<text text-anchor="middle" x="211.35" y="-105.41" font-family="Times,serif" font-size="14.00">slice=[13,24]</text>
</g>
<!-- n3&#45;&gt;n5 -->
<g id="edge6" class="edge">
<title>n3&#45;&gt;n5</title>
<path fill="none" stroke="black" d="M160.12,-180.91C167.83,-171.39 176.77,-160.33 185.01,-150.15"/>
<polygon fill="black" stroke="black" points="187.86,-152.2 191.43,-142.22 182.42,-147.8 187.86,-152.2"/>
</g>
<!-- n6 -->
<g id="node6" class="node">
<title>n6</title>
<ellipse fill="none" stroke="black" cx="64.35" cy="-26.87" rx="64.19" ry="26.74"/>
<text text-anchor="middle" x="64.35" y="-30.67" font-family="Times,serif" font-size="14.00">type=number</text>
<text text-anchor="middle" x="64.35" y="-15.67" font-family="Times,serif" font-size="14.00">slice=[14,15]</text>
</g>
<!-- n5&#45;&gt;n6 -->
<g id="edge7" class="edge">
<title>n5&#45;&gt;n6</title>
<path fill="none" stroke="black" d="M175.39,-94.15C155.38,-82.21 130.3,-67.24 109.04,-54.55"/>
<polygon fill="black" stroke="black" points="110.57,-51.38 100.19,-49.26 106.98,-57.39 110.57,-51.38"/>
</g>
<!-- n7 -->
<g id="node7" class="node">
<title>n7</title>
<ellipse fill="none" stroke="black" cx="211.35" cy="-26.87" rx="64.19" ry="26.74"/>
<text text-anchor="middle" x="211.35" y="-30.67" font-family="Times,serif" font-size="14.00">type=number</text>
<text text-anchor="middle" x="211.35" y="-15.67" font-family="Times,serif" font-size="14.00">slice=[16,19]</text>
</g>
<!-- n5&#45;&gt;n7 -->
<g id="edge8" class="edge">
<title>n5&#45;&gt;n7</title>
<path fill="none" stroke="black" d="M211.35,-89.29C211.35,-81.32 211.35,-72.43 211.35,-63.94"/>
<polygon fill="black" stroke="black" points="214.85,-63.87 211.35,-53.87 207.85,-63.87 214.85,-63.87"/>
</g>
<!-- n8 -->
<g id="node8" class="node">
<title>n8</title>
<ellipse fill="none" stroke="black" cx="358.35" cy="-26.87" rx="64.19" ry="26.74"/>
<text text-anchor="middle" x="358.35" y="-30.67" font-family="Times,serif" font-size="14.00">type=number</text>
<text text-anchor="middle" x="358.35" y="-15.67" font-family="Times,serif" font-size="14.00">slice=[20,23]</text>
</g>
<!-- n5&#45;&gt;n8 -->
<g id="edge9" class="edge">
<title>n5&#45;&gt;n8</title>
<path fill="none" stroke="black" d="M247.31,-94.15C267.31,-82.21 292.39,-67.24 313.65,-54.55"/>
<polygon fill="black" stroke="black" points="315.71,-57.39 322.5,-49.26 312.12,-51.38 315.71,-57.39"/>
</g>
<!-- n10 -->
<g id="node10" class="node">
<title>n10</title>
<ellipse fill="none" stroke="black" cx="282.35" cy="-206.35" rx="64.19" ry="26.74"/>
<text text-anchor="middle" x="282.35" y="-210.15" font-family="Times,serif" font-size="14.00">type=true</text>
<text text-anchor="middle" x="282.35" y="-195.15" font-family="Times,serif" font-size="14.00">slice=[27,31]</text>
</g>
<!-- n9&#45;&gt;n10 -->
<g id="edge10" class="edge">
<title>n9&#45;&gt;n10</title>
<path fill="none" stroke="black" d="M363.45,-272.04C350.04,-261.34 333.93,-248.5 319.62,-237.08"/>
<polygon fill="black" stroke="black" points="321.44,-234.05 311.44,-230.55 317.07,-239.53 321.44,-234.05"/>
</g>
<!-- n11 -->
<g id="node11" class="node">
<title>n11</title>
<ellipse fill="none" stroke="black" cx="429.35" cy="-206.35" rx="64.19" ry="26.74"/>
<text text-anchor="middle" x="429.35" y="-210.15" font-family="Times,serif" font-size="14.00">type=false</text>
<text text-anchor="middle" x="429.35" y="-195.15" font-family="Times,serif" font-size="14.00">slice=[32,37]</text>
</g>
<!-- n9&#45;&gt;n11 -->
<g id="edge11" class="edge">
<title>n9&#45;&gt;n11</title>
<path fill="none" stroke="black" d="M403.25,-269.24C406.79,-260.85 410.77,-251.4 414.55,-242.45"/>
<polygon fill="black" stroke="black" points="417.86,-243.59 418.52,-233.02 411.41,-240.87 417.86,-243.59"/>
</g>
<!-- n12 -->
<g id="node12" class="node">
<title>n12</title>
<ellipse fill="none" stroke="black" cx="576.35" cy="-206.35" rx="64.19" ry="26.74"/>
<text text-anchor="middle" x="576.35" y="-210.15" font-family="Times,serif" font-size="14.00">type=null</text>
<text text-anchor="middle" x="576.35" y="-195.15" font-family="Times,serif" font-size="14.00">slice=[38,42]</text>
</g>
<!-- n9&#45;&gt;n12 -->
<g id="edge12" class="edge">
<title>n9&#45;&gt;n12</title>
<path fill="none" stroke="black" d="M433.64,-275.4C460.89,-262.41 496.77,-245.3 525.73,-231.49"/>
<polygon fill="black" stroke="black" points="527.35,-234.59 534.87,-227.13 524.34,-228.27 527.35,-234.59"/>
</g>
</g>
</svg>
